DataRate=1500.000000
DataType=double
version=3
OpenSimVersion=4.3-2021-08-27-4bc7ad9
endheader
time	f1_1	f1_2	f1_3	p1_1	p1_2	p1_3	m1_1	m1_2	m1_3	f2_1	f2_2	f2_3	p2_1	p2_2	p2_3	m2_1	m2_2	m2_3	f3_1	f3_2	f3_3	p3_1	p3_2	p3_3	m3_1	m3_2	m3_3
2.486666666666667	-22.12727994473359	-24.24347133493261	490.9459899430231	-259.089987039566	398.0210380554199	1.304700013250113	-65422.04889560074	5576.531673176183	-2570.030347668619	0	0	-0	251.3170061707497	231.4150097742677	1.697000026702881	0	0	-0	0	0	-0	949.9620513916016	396.987003326416	4.582600176334381	0	0	-0
2.487333333333333	-22.01584729139926	-24.79519991632956	489.6886422368767	-259.089987039566	398.0210380554199	1.304700013250113	-65208.48893446371	5465.512645100097	-2437.590628731532	0	0	-0	251.3170061707497	231.4150097742677	1.697000026702881	0	0	-0	0	0	-0	949.9620513916016	396.987003326416	4.582600176334381	0	0	-0
2.488	-22.78599175573052	-23.34637308055751	488.7189044563092	-259.089987039566	398.0210380554199	1.304700013250113	-65601.33934214224	4977.902380608651	-2593.299114272831	0	0	-0	251.3170061707497	231.4150097742677	1.697000026702881	0	0	-0	0	0	-0	949.9620513916016	396.987003326416	4.582600176334381	0	0	-0
2.488666666666667	-23.25285189350409	-23.05379306691905	490.5146435791539	-259.089987039566	398.0210380554199	1.304700013250113	-65638.47730934975	4853.66212686819	-2580.861670162049	0	0	-0	251.3170061707497	231.4150097742677	1.697000026702881	0	0	-0	0	0	-0	949.9620513916016	396.987003326416	4.582600176334381	0	0	-0
2.489333333333333	-20.21439708231522	-23.44100427972767	496.7648355413783	-259.089987039566	398.0210380554199	1.304700013250113	-65844.12559437049	4666.957535682632	-2801.37385762933	0	0	-0	251.3170061707497	231.4150097742677	1.697000026702881	0	0	-0	0	0	-0	949.9620513916016	396.987003326416	4.582600176334381	0	0	-0
2.49	-21.84131853694387	-22.75949170960684	493.0119965680719	-259.089987039566	398.0210380554199	1.304700013250113	-64791.46576397851	4460.141364052048	-2474.267869276835	0	0	-0	251.3170061707497	231.4150097742677	1.697000026702881	0	0	-0	0	0	-0	949.9620513916016	396.987003326416	4.582600176334381	0	0	-0
2.490666666666666	-20.97968233131287	-23.01176351925316	485.3247366086819	-259.089987039566	398.0210380554199	1.304700013250113	-65957.66266180047	4728.423636813833	-2495.830236925267	0	0	-0	251.3170061707497	231.4150097742677	1.697000026702881	0	0	-0	0	0	-0	949.9620513916016	396.987003326416	4.582600176334381	0	0	-0
2.491333333333333	-21.64400349231195	-22.39358759049013	490.2599045481101	-259.089987039566	398.0210380554199	1.304700013250113	-65703.24872928749	4710.483030557522	-2338.63207105329	0	0	-0	251.3170061707497	231.4150097742677	1.697000026702881	0	0	-0	0	0	-0	949.9620513916016	396.987003326416	4.582600176334381	0	0	-0
2.492	-20.13132671624003	-21.99602458599938	489.4464968642303	-259.089987039566	398.0210380554199	1.304700013250113	-65798.82873454348	4524.613261563123	-2555.625307377678	0	0	-0	251.3170061707497	231.4150097742677	1.697000026702881	0	0	-0	0	0	-0	949.9620513916016	396.987003326416	4.582600176334381	0	0	-0
2.492666666666667	-20.5426029798152	-22.65971494897588	489.8986029109056	-259.089987039566	398.0210380554199	1.304700013250113	-65936.46189214061	3641.357731163687	-2327.977562623277	0	0	-0	251.3170061707497	231.4150097742677	1.697000026702881	0	0	-0	0	0	-0	949.9620513916016	396.987003326416	4.582600176334381	0	0	-0
2.493333333333333	-20.61513251093677	-22.81497966333488	487.6531111731213	-259.089987039566	398.0210380554199	1.304700013250113	-65822.35489449532	4351.236441838941	-2448.45917344627	0	0	-0	251.3170061707497	231.4150097742677	1.697000026702881	0	0	-0	0	0	-0	949.9620513916016	396.987003326416	4.582600176334381	0	0	-0
2.494	-19.15287997802463	-22.50394043712537	493.2950904656817	-259.089987039566	398.0210380554199	1.304700013250113	-65891.98035445019	4544.226153983047	-2452.276816501273	0	0	-0	251.3170061707497	231.4150097742677	1.697000026702881	0	0	-0	0	0	-0	949.9620513916016	396.987003326416	4.582600176334381	0	0	-0
2.494666666666666	-19.76769239948097	-21.70357948952734	491.3417013772067	-259.089987039566	398.0210380554199	1.304700013250113	-65994.58858165922	4129.933323713826	-2308.516412229418	0	0	-0	251.3170061707497	231.4150097742677	1.697000026702881	0	0	-0	0	0	-0	949.9620513916016	396.987003326416	4.582600176334381	0	0	-0
2.495333333333333	-20.00226841961235	-22.12414014520909	490.6333757298018	-259.089987039566	398.0210380554199	1.304700013250113	-66551.99436397689	4074.57466561772	-2235.05669372161	0	0	-0	251.3170061707497	231.4150097742677	1.697000026702881	0	0	-0	0	0	-0	949.9620513916016	396.987003326416	4.582600176334381	0	0	-0
2.496	-19.75443305025638	-21.94308955199402	491.8732959660602	-259.089987039566	398.0210380554199	1.304700013250113	-65600.93796803107	3938.297613694642	-2230.62403081683	0	0	-0	251.3170061707497	231.4150097742677	1.697000026702881	0	0	-0	0	0	-0	949.9620513916016	396.987003326416	4.582600176334381	0	0	-0
2.496666666666667	-19.34568432173759	-21.9741906195865	492.1495374222285	-259.089987039566	398.0210380554199	1.304700013250113	-66234.37422007669	3400.75477118149	-2230.650579224623	0	0	-0	251.3170061707497	231.4150097742677	1.697000026702881	0	0	-0	0	0	-0	949.9620513916016	396.987003326416	4.582600176334381	0	0	-0
2.497333333333333	-18.77055024398069	-21.2678426633419	492.6931202379968	-259.089987039566	398.0210380554199	1.304700013250113	-66258.404756984	3119.524310024043	-2214.153955965459	0	0	-0	251.3170061707497	231.4150097742677	1.697000026702881	0	0	-0	0	0	-0	949.9620513916016	396.987003326416	4.582600176334381	0	0	-0
2.498	-19.45220170450823	-19.56775581849534	487.4284308768578	-259.089987039566	398.0210380554199	1.304700013250113	-65609.23391248834	3355.042858335361	-2002.30314273409	0	0	-0	251.3170061707497	231.4150097742677	1.697000026702881	0	0	-0	0	0	-0	949.9620513916016	396.987003326416	4.582600176334381	0	0	-0
2.498666666666666	-17.73450072040077	-21.26643657385191	491.4383632333632	-259.089987039566	398.0210380554199	1.304700013250113	-66189.91483370519	3258.657311935672	-2166.312840118335	0	0	-0	251.3170061707497	231.4150097742677	1.697000026702881	0	0	-0	0	0	-0	949.9620513916016	396.987003326416	4.582600176334381	0	0	-0
2.499333333333333	-18.44677364938411	-19.77686958669886	494.4039263919778	-259.089987039566	398.0210380554199	1.304700013250113	-65833.38390271174	3751.587584228662	-2198.689850664031	0	0	-0	251.3170061707497	231.4150097742677	1.697000026702881	0	0	-0	0	0	-0	949.9620513916016	396.987003326416	4.582600176334381	0	0	-0
2.5	-16.93465747287092	-21.00519871026081	495.1216765486904	-259.089987039566	398.0210380554199	1.304700013250113	-66175.20510692339	3373.820438789488	-1895.059303334353	0	0	-0	251.3170061707497	231.4150097742677	1.697000026702881	0	0	-0	0	0	-0	949.9620513916016	396.987003326416	4.582600176334381	0	0	-0
2.500666666666667	-18.15471636664806	-20.84660108561688	492.705861663891	-259.089987039566	398.0210380554199	1.304700013250113	-65983.56245548603	3625.930068152738	-1899.798070737358	0	0	-0	251.3170061707497	231.4150097742677	1.697000026702881	0	0	-0	0	0	-0	949.9620513916016	396.987003326416	4.582600176334381	0	0	-0
2.501333333333333	-15.90093029108524	-19.67199360100833	495.0422623942364	-259.089987039566	398.0210380554199	1.304700013250113	-66502.87605933762	2820.896018245542	-2014.780301526898	0	0	-0	251.3170061707497	231.4150097742677	1.697000026702881	0	0	-0	0	0	-0	949.9620513916016	396.987003326416	4.582600176334381	0	0	-0
2.502	-16.66016005777531	-20.17004913150162	492.0813664095754	-259.089987039566	398.0210380554199	1.304700013250113	-66395.77661652955	2987.346472485126	-2049.36678944363	0	0	-0	251.3170061707497	231.4150097742677	1.697000026702881	0	0	-0	0	0	-0	949.9620513916016	396.987003326416	4.582600176334381	0	0	-0
2.502666666666666	-17.60977395669944	-20.38599678961328	497.0008415957441	-259.089987039566	398.0210380554199	1.304700013250113	-66329.65610278872	3021.940785316544	-2150.828698302272	0	0	-0	251.3170061707497	231.4150097742677	1.697000026702881	0	0	-0	0	0	-0	949.9620513916016	396.987003326416	4.582600176334381	0	0	-0
2.503333333333333	-16.76819095112325	-23.67257084911633	491.5053296516226	-259.089987039566	398.0210380554199	1.304700013250113	-66548.11315776878	2717.818141276694	-2177.849064109184	0	0	-0	251.3170061707497	231.4150097742677	1.697000026702881	0	0	-0	0	0	-0	949.9620513916016	396.987003326416	4.582600176334381	0	0	-0
2.504	-16.35417902787099	-20.47500959857364	491.274478183494	-259.089987039566	398.0210380554199	1.304700013250113	-66096.35686992506	2471.736493995913	-1851.306353127878	0	0	-0	251.3170061707497	231.4150097742677	1.697000026702881	0	0	-0	0	0	-0	949.9620513916016	396.987003326416	4.582600176334381	0	0	-0
2.504666666666667	-16.62764736874389	-20.0921863695356	490.0266131604544	-259.089987039566	398.0210380554199	1.304700013250113	-66631.29729485635	2943.32043473267	-2041.487295301392	0	0	-0	251.3170061707497	231.4150097742677	1.697000026702881	0	0	-0	0	0	-0	949.9620513916016	396.987003326416	4.582600176334381	0	0	-0
